<svg width="16" height="17" viewBox="0 0 16 17" fill="none" xmlns="http://www.w3.org/2000/svg"><path d="M8.00016 15.3335C4.31816 15.3335 1.3335 12.3488 1.3335 8.66679C1.3335 4.98479 4.31816 2.00012 8.00016 2.00012C11.6822 2.00012 14.6668 4.98479 14.6668 8.66679C14.6668 12.3488 11.6822 15.3335 8.00016 15.3335ZM7.0815 6.27679C7.04137 6.25002 6.99474 6.23463 6.94657 6.23227C6.89839 6.22991 6.85048 6.24065 6.80793 6.26336C6.76538 6.28608 6.72978 6.3199 6.70494 6.36124C6.68009 6.40258 6.66692 6.44989 6.66683 6.49812V10.8355C6.66692 10.8837 6.68009 10.931 6.70494 10.9723C6.72978 11.0137 6.76538 11.0475 6.80793 11.0702C6.85048 11.0929 6.89839 11.1037 6.94657 11.1013C6.99474 11.0989 7.04137 11.0836 7.0815 11.0568L10.3342 8.88879C10.3707 8.86445 10.4007 8.83144 10.4215 8.79271C10.4422 8.75398 10.4531 8.71073 10.4531 8.66679C10.4531 8.62285 10.4422 8.57959 10.4215 8.54086C10.4007 8.50213 10.3707 8.46913 10.3342 8.44479L7.08083 6.27679H7.0815Z" fill="#fff"></path></svg>